<svg id="vk" xmlns="http://www.w3.org/2000/svg" viewBox="0 0 363.301 363.301"><path d="M347.506 240.442c-7.91-9.495-16.899-18.005-25.592-26.235-3.091-2.927-6.287-5.953-9.368-8.962-8.845-8.648-9.167-11.897-2.164-21.72 4.845-6.771 9.982-13.551 14.95-20.108 4.506-5.949 9.166-12.101 13.632-18.273l.917-1.269c8.536-11.811 17.364-24.024 22.062-38.757 1.22-3.887 2.501-9.607-.428-14.39-2.927-4.779-8.605-6.237-12.622-6.918-1.987-.337-3.96-.383-5.791-.383l-55.901-.04-.462-.004c-8.452 0-14.148 3.983-17.412 12.178-3.116 7.83-6.539 16.168-10.445 24.096-7.773 15.787-17.645 33.97-31.93 49.135l-.604.645c-1.687 1.813-3.598 3.866-4.995 3.866-.214 0-.447-.041-.711-.124-2.959-1.153-4.945-8.316-4.855-11.648a6.35 6.35 0 00.002-.138l-.039-64.61c0-.224-.016-.446-.045-.668-1.422-10.503-4.572-17.041-16.474-19.372a4.923 4.923 0 00-.961-.094h-58.126c-9.47 0-14.688 3.849-19.593 9.61-1.324 1.54-4.08 4.746-2.714 8.635 1.386 3.947 5.885 4.791 7.35 5.065 7.272 1.384 11.371 5.832 12.532 13.604 2.027 13.496 2.276 27.901.784 45.334-.416 4.845-1.239 8.587-2.595 11.784-.315.746-1.432 3.181-2.571 3.182-.362 0-1.409-.142-3.316-1.456-4.509-3.089-7.808-7.497-11.654-12.942-13.084-18.491-24.065-38.861-33.575-62.288-3.527-8.624-10.114-13.452-18.556-13.594-9.276-.141-17.686-.209-25.707-.209-8.764 0-16.889.081-24.823.246-6.792.12-11.49 2.156-13.962 6.056-2.476 3.903-2.315 9.03.479 15.236 22.366 49.723 42.645 85.876 65.755 117.228 16.193 21.938 32.435 37.123 51.109 47.784 19.674 11.255 41.722 16.727 67.402 16.727 2.911 0 5.921-.071 8.956-.213 14.922-.727 20.458-6.128 21.158-20.657.333-7.425 1.145-15.212 4.795-21.853 2.304-4.184 4.452-4.184 5.158-4.184 1.36 0 3.046.626 4.857 1.799 3.248 2.12 6.033 4.96 8.316 7.441 2.149 2.357 4.274 4.738 6.401 7.12 4.59 5.141 9.336 10.456 14.294 15.497 10.852 11.041 22.807 15.897 36.538 14.843h51.252c.109 0 .219-.004.328-.011 5.107-.337 9.53-3.17 12.135-7.772 3.227-5.701 3.162-12.974-.174-19.46-3.785-7.334-8.695-13.6-12.997-18.759z"/></svg>